<svg width="31" height="30" viewBox="0 0 31 30" fill="none" xmlns="http://www.w3.org/2000/svg">
<path d="M29.756 0H2.15599C1.49224 0 0.955994 0.53625 0.955994 1.2V28.8C0.955994 29.4638 1.49224 30 2.15599 30H29.756C30.4197 30 30.956 29.4638 30.956 28.8V1.2C30.956 0.53625 30.4197 0 29.756 0ZM28.556 27.6H21.6522V18.3825H25.5522L26.1372 13.8563H21.6522V10.965C21.6522 9.6525 22.016 8.76 23.8947 8.76H26.291V4.71C25.8747 4.65375 24.4535 4.53 22.796 4.53C19.3385 4.53 16.9722 6.64125 16.9722 10.515V13.8525H13.0647V18.3787H16.976V27.6H3.35599V2.4H28.556V27.6Z" fill="white" fill-opacity="0.9"/>
</svg>
