<svg width="31" height="31" viewBox="0 0 31 31" fill="none" xmlns="http://www.w3.org/2000/svg">
<path d="M28.5447 0.259766H3.36724C2.03599 0.259766 0.955994 1.33977 0.955994 2.67102V27.8485C0.955994 29.1798 2.03599 30.2598 3.36724 30.2598H28.5447C29.876 30.2598 30.956 29.1798 30.956 27.8485V2.67102C30.956 1.33977 29.876 0.259766 28.5447 0.259766ZM28.5447 27.8598C11.7522 27.856 3.35599 27.8523 3.35599 27.8485C3.35974 11.056 3.36349 2.65977 3.36724 2.65977C20.1597 2.66352 28.556 2.66727 28.556 2.67102C28.5522 19.4635 28.5485 27.8598 28.5447 27.8598ZM5.40349 11.506H9.85474V25.8235H5.40349V11.506ZM7.63099 9.54852C9.05224 9.54852 10.211 8.39352 10.211 6.96852C10.211 6.6297 10.1443 6.29421 10.0146 5.98119C9.88495 5.66817 9.69491 5.38376 9.45533 5.14418C9.21575 4.9046 8.93134 4.71456 8.61832 4.58491C8.3053 4.45525 7.9698 4.38852 7.63099 4.38852C7.29218 4.38852 6.95669 4.45525 6.64367 4.58491C6.33065 4.71456 6.04623 4.9046 5.80666 5.14418C5.56708 5.38376 5.37704 5.66817 5.24738 5.98119C5.11773 6.29421 5.05099 6.6297 5.05099 6.96852C5.04724 8.39352 6.20224 9.54852 7.63099 9.54852ZM17.0922 18.7398C17.0922 16.8723 17.4485 15.0648 19.7622 15.0648C22.0422 15.0648 22.076 17.1985 22.076 18.8598V25.8235H26.5235V17.971C26.5235 14.116 25.691 11.1498 21.1872 11.1498C19.0235 11.1498 17.5722 12.3385 16.976 13.4635H16.916V11.506H12.6447V25.8235H17.0922V18.7398Z" fill="white" fill-opacity="0.9"/>
</svg>
