<svg width="31" height="30" viewBox="0 0 31 30" fill="none" xmlns="http://www.w3.org/2000/svg">
<path d="M15.956 0C11.8783 0 11.3701 0.01969 9.77428 0.0871984C8.1719 0.165958 7.08801 0.414427 6.13164 0.785723C5.1307 1.1636 4.22421 1.75523 3.47537 2.51938C2.7091 3.26647 2.11714 4.17346 1.74172 5.17565C1.37042 6.13202 1.12195 7.2159 1.04319 8.81829C0.970996 10.4151 0.955994 10.9223 0.955994 15C0.955994 19.0777 0.975684 19.5859 1.04319 21.1817C1.12195 22.7794 1.37042 23.868 1.74172 24.8244C2.1196 25.8253 2.71123 26.7318 3.47537 27.4806C4.22246 28.2469 5.12945 28.8389 6.13164 29.2143C7.08801 29.5809 8.17658 29.834 9.77428 29.9128C11.371 29.985 11.8783 30 15.956 30C20.0337 30 20.5419 29.9803 22.1377 29.9128C23.7354 29.834 24.824 29.5799 25.7803 29.2143C26.7813 28.8364 27.6878 28.2448 28.4366 27.4806C29.2039 26.7343 29.796 25.8271 30.1703 24.8244C30.5369 23.868 30.79 22.7794 30.8688 21.1817C30.941 19.5849 30.956 19.0777 30.956 15C30.956 10.9223 30.9363 10.4141 30.8688 8.81829C30.79 7.22059 30.5359 6.12639 30.1703 5.17565C29.7924 4.17471 29.2008 3.26822 28.4366 2.51938C27.6903 1.75212 26.7831 1.16 25.7803 0.785723C24.824 0.414427 23.7354 0.165958 22.1377 0.0871984C20.5409 0.0150019 20.0337 0 15.956 0ZM15.956 2.70034C19.9606 2.70034 20.4387 2.72003 22.0214 2.78754C23.4813 2.85598 24.2764 3.09976 24.8043 3.30604C25.4569 3.54693 26.0476 3.93035 26.5333 4.42837C27.0304 4.91201 27.4124 5.50133 27.6509 6.15264C27.8572 6.68052 28.1009 7.47562 28.1694 8.93549C28.2369 10.5182 28.2566 10.9973 28.2566 15.0009C28.2566 19.0046 28.2369 19.4837 28.1638 21.0664C28.085 22.5263 27.8412 23.3214 27.6359 23.8492C27.3518 24.5534 27.0349 25.0456 26.5117 25.5782C26.0244 26.0731 25.4341 26.4547 24.7827 26.6958C24.2614 26.9021 23.4551 27.1459 21.9896 27.2143C20.3984 27.2818 19.9296 27.3015 15.9147 27.3015C11.8999 27.3015 11.432 27.2818 9.83898 27.2087C8.37911 27.13 7.5737 26.8862 7.04582 26.6808C6.33323 26.3967 5.84473 26.0798 5.32154 25.5566C4.79366 25.0288 4.45799 24.5262 4.19921 23.8277C3.98919 23.3064 3.74916 22.5 3.67133 21.0345C3.61789 19.4621 3.59257 18.9746 3.59257 14.9784C3.59257 10.9842 3.61789 10.4957 3.67133 8.90361C3.74916 7.43812 3.98919 6.63364 4.19921 6.11045C4.45799 5.39692 4.7946 4.90936 5.32154 4.38148C5.84379 3.85923 6.33323 3.52169 7.04582 3.25728C7.5737 3.05194 8.35942 2.80816 9.82492 2.73503C11.4161 2.67783 11.8849 2.65721 15.8941 2.65721L15.956 2.70034ZM15.956 7.30123C14.9446 7.30086 13.9431 7.49979 13.0086 7.88665C12.0742 8.27351 11.2251 8.84072 10.51 9.55587C9.79484 10.271 9.22763 11.1201 8.84077 12.0545C8.45391 12.989 8.25497 13.9905 8.25534 15.0019C8.25497 16.0132 8.45391 17.0148 8.84077 17.9492C9.22763 18.8837 9.79484 19.7327 10.51 20.4479C11.2251 21.163 12.0742 21.7302 13.0086 22.1171C13.9431 22.504 14.9446 22.7029 15.956 22.7025C16.9674 22.7029 17.9689 22.504 18.9033 22.1171C19.8378 21.7302 20.6869 21.163 21.402 20.4479C22.1171 19.7327 22.6844 18.8837 23.0712 17.9492C23.4581 17.0148 23.657 16.0132 23.6566 15.0019C23.657 13.9905 23.4581 12.989 23.0712 12.0545C22.6844 11.1201 22.1171 10.271 21.402 9.55587C20.6869 8.84072 19.8378 8.27351 18.9033 7.88665C17.9689 7.49979 16.9674 7.30086 15.956 7.30123ZM15.956 20.0022C13.1919 20.0022 10.9557 17.766 10.9557 15.0019C10.9557 12.2378 13.1919 10.0016 15.956 10.0016C18.7201 10.0016 20.9563 12.2378 20.9563 15.0019C20.9563 17.766 18.7201 20.0022 15.956 20.0022ZM25.7672 6.99369C25.7667 7.47156 25.5765 7.92968 25.2385 8.26742C24.9004 8.60514 24.4421 8.79485 23.9642 8.79485C23.7279 8.79485 23.4939 8.74831 23.2756 8.65789C23.0573 8.56746 22.859 8.43493 22.6919 8.26785C22.5248 8.10077 22.3923 7.90242 22.3019 7.68412C22.2114 7.46582 22.1649 7.23185 22.1649 6.99556C22.1649 6.75928 22.2114 6.5253 22.3019 6.307C22.3923 6.08871 22.5248 5.89035 22.6919 5.72327C22.859 5.55619 23.0573 5.42366 23.2756 5.33324C23.4939 5.24281 23.7279 5.19627 23.9642 5.19627C24.9552 5.19627 25.7672 6.00263 25.7672 6.99369Z" fill="white" fill-opacity="0.9"/>
</svg>
