<svg width="31" height="28" viewBox="0 0 31 28" fill="none" xmlns="http://www.w3.org/2000/svg">
<path d="M28.4365 0H3.47552C2.7724 0 2.1767 0.354776 1.68842 1.06433C1.20013 1.77388 0.955994 2.59259 0.955994 3.52047V24.4795C0.955994 25.4074 1.20013 26.2261 1.68842 26.9357C2.1767 27.6452 2.7724 28 3.47552 28H28.4365C29.1396 28 29.7353 27.6452 30.2236 26.9357C30.7119 26.2261 30.956 25.4074 30.956 24.4795V3.52047C30.956 2.59259 30.7119 1.77388 30.2236 1.06433C29.7353 0.354776 29.1396 0 28.4365 0ZM26.0927 3.52047L15.956 11.8713L5.81927 3.52047H26.0927ZM3.47552 24.4795V5.64912L15.3115 15.5556C15.3896 15.6647 15.6044 15.7193 15.956 15.7193C16.3076 15.7193 16.5224 15.6647 16.6005 15.5556L28.4365 5.64912V24.4795H3.47552Z" fill="white"/>
</svg>
